<svg width="667" height="45" viewBox="0 0 667 45" fill="none" xmlns="http://www.w3.org/2000/svg">
<path d="M41.601 24.4996C41.6296 23.0522 41.601 21.5764 41.601 20.1006C41.601 19.0504 41.3443 17.2057 43.1133 17.2624C44.7682 17.3192 44.5399 19.0788 44.5399 20.1573C44.5399 21.6048 44.5114 23.0522 44.5399 24.528H46.1949V20.1857C46.1949 19.1356 45.9666 17.3192 47.7071 17.2908C49.4191 17.2624 49.1623 19.1072 49.1623 20.2141C49.1623 21.6331 49.1337 23.0806 49.1623 24.528H50.9028C50.9313 23.2225 50.9028 21.9169 50.9028 20.6114C50.9028 19.3343 51.0169 18.1706 50.4177 17.1773C49.5047 15.6731 46.737 15.1055 45.4245 17.3192C45.2247 17.1489 45.1106 16.7516 44.597 16.3826C43.3986 15.5596 41.6296 15.8718 39.8891 15.8718V24.528L41.601 24.4996ZM68.2223 20.8952C68.1367 21.7183 67.8799 22.3994 67.4519 22.7968C66.2535 23.9036 63.4287 23.6198 63.8282 19.5897C63.9709 18.1139 64.9125 16.7516 66.653 17.234C67.9655 17.603 68.3649 19.1924 68.2223 20.8952ZM62.0306 20.7817C62.2018 23.1657 63.8853 24.9537 66.4532 24.6983C69.1068 24.4429 70.1055 22.144 69.9913 19.76C69.706 14.2824 61.5741 14.3108 62.0306 20.7817ZM33.0126 17.1773C34.6961 16.8651 35.5235 18.2842 35.6091 19.8167C35.6947 21.2358 35.4379 23.0238 33.783 23.3076C32.0996 23.5914 31.2436 22.2575 31.158 20.6966C31.1009 18.9653 31.5004 17.4895 33.0126 17.1773ZM37.3782 20.6966C37.7491 16.1839 33.2409 14.4811 30.6729 16.8651C29.9881 17.4895 29.5031 18.5112 29.4175 19.7884C29.2178 22.4278 30.5873 24.4713 32.927 24.6983C34.4393 24.8686 35.6947 24.2442 36.4081 23.3928C36.6649 23.0806 36.836 22.7968 37.0072 22.3994C37.2355 21.8886 37.3496 21.3209 37.3782 20.6966ZM21.7136 17.3192C23.9677 17.1489 25.3087 17.8301 25.3943 20.0154C25.4799 22.2859 24.4242 23.1941 22.2272 23.1941H21.7136V17.3192ZM20.0302 24.4996C21.4568 24.5848 23.9392 24.6415 25.1661 23.932C26.3359 23.2792 27.1919 22.1156 27.1919 20.2425C27.1919 17.3476 25.2517 16.1272 22.8549 16.0137C22.1701 15.9853 20.7149 15.9285 20.0587 16.0137L20.0302 24.4996ZM55.411 17.3476H59.6624C59.6909 17.0638 59.7195 16.2407 59.6339 16.0137H54.2982C54.0985 16.0137 53.7275 15.9285 53.7275 16.1272V24.4996H59.7765L59.8051 23.1373H55.411V20.7817H59.4341V19.4762H55.411V17.3476Z" fill="#272727"/>
<path d="M0.855988 1H41.5725V13.9986H39.8605V2.70287H1.71198V41.0459H39.8605V26.5147H41.5725V42.7487H0V1H0.855988Z" fill="#FFDB48"/>
<path d="M500.046 13.02H503.906V14.88H500.046V18.78H498.166V14.88H494.326V13.02H498.166V9.08H500.046V13.02ZM507.252 21L512.812 8.9H505.512V6.72H515.512V8.42L509.952 21H507.252ZM522.292 15.52C522.292 13.8933 522.526 12.3267 522.992 10.82C523.472 9.3 524.219 7.93333 525.232 6.72H527.372C526.452 7.97333 525.759 9.35333 525.292 10.86C524.826 12.3667 524.592 13.9133 524.592 15.5C524.592 17.0467 524.826 18.5667 525.292 20.06C525.759 21.5533 526.446 22.92 527.352 24.16H525.232C524.219 22.9867 523.472 21.66 522.992 20.18C522.526 18.6867 522.292 17.1333 522.292 15.52ZM539.057 17.94H537.197V21H534.717V17.94H528.357V16.06L534.777 6.68H537.197V15.88H539.057V17.94ZM534.717 12.68C534.717 12.32 534.723 11.9333 534.737 11.52C534.75 11.1067 534.763 10.7267 534.777 10.38C534.803 10.02 534.823 9.74667 534.837 9.56H534.757C534.517 10.12 534.23 10.64 533.897 11.12L530.657 15.88H534.717V12.68ZM550.022 12.82C550.022 13.6333 549.962 14.4467 549.842 15.26C549.722 16.06 549.515 16.82 549.222 17.54C548.929 18.2467 548.522 18.88 548.002 19.44C547.482 19.9867 546.815 20.42 546.002 20.74C545.202 21.0467 544.229 21.2 543.082 21.2C542.815 21.2 542.495 21.1867 542.122 21.16C541.749 21.1333 541.449 21.0933 541.222 21.04V18.96C541.462 19.0267 541.735 19.08 542.042 19.12C542.349 19.16 542.649 19.18 542.942 19.18C544.155 19.18 545.089 18.9667 545.742 18.54C546.409 18.1 546.875 17.5067 547.142 16.76C547.422 16.0133 547.582 15.1733 547.622 14.24H547.502C547.209 14.7067 546.815 15.1 546.322 15.42C545.829 15.74 545.135 15.9 544.242 15.9C543.029 15.9 542.049 15.5133 541.302 14.74C540.569 13.9667 540.202 12.8733 540.202 11.46C540.202 9.92667 540.629 8.72667 541.482 7.86C542.335 6.98 543.489 6.54 544.942 6.54C545.889 6.54 546.742 6.76667 547.502 7.22C548.275 7.67333 548.889 8.36667 549.342 9.3C549.795 10.22 550.022 11.3933 550.022 12.82ZM544.982 8.62C544.302 8.62 543.749 8.84667 543.322 9.3C542.895 9.75333 542.682 10.46 542.682 11.42C542.682 12.1933 542.862 12.8067 543.222 13.26C543.595 13.7133 544.162 13.94 544.922 13.94C545.442 13.94 545.889 13.8333 546.262 13.62C546.649 13.3933 546.949 13.1133 547.162 12.78C547.375 12.4333 547.482 12.0733 547.482 11.7C547.482 11.22 547.389 10.74 547.202 10.26C547.015 9.78 546.735 9.38667 546.362 9.08C545.989 8.77333 545.529 8.62 544.982 8.62ZM556.687 12.02C557.594 12.02 558.394 12.1867 559.087 12.52C559.781 12.84 560.321 13.32 560.707 13.96C561.107 14.6 561.307 15.38 561.307 16.3C561.307 17.82 560.827 19.02 559.867 19.9C558.921 20.7667 557.547 21.2 555.747 21.2C555.001 21.2 554.301 21.1333 553.647 21C552.994 20.8667 552.427 20.6733 551.947 20.42V18.18C552.441 18.4467 553.034 18.6667 553.727 18.84C554.421 19.0133 555.074 19.1 555.687 19.1C556.634 19.1 557.374 18.8933 557.907 18.48C558.454 18.0667 558.727 17.42 558.727 16.54C558.727 15.7533 558.474 15.1533 557.967 14.74C557.461 14.3133 556.674 14.1 555.607 14.1C555.234 14.1 554.827 14.1333 554.387 14.2C553.961 14.2667 553.607 14.3333 553.327 14.4L552.247 13.8L552.787 6.72H560.307V8.92H555.007L554.707 12.22C554.934 12.18 555.201 12.14 555.507 12.1C555.814 12.0467 556.207 12.02 556.687 12.02ZM567.993 15.52C567.993 17.1333 567.753 18.6867 567.273 20.18C566.806 21.66 566.066 22.9867 565.053 24.16H562.933C563.839 22.92 564.526 21.5533 564.993 20.06C565.473 18.5667 565.713 17.0467 565.713 15.5C565.713 13.9133 565.473 12.3667 564.993 10.86C564.526 9.35333 563.833 7.97333 562.913 6.72H565.053C566.066 7.93333 566.806 9.3 567.273 10.82C567.753 12.3267 567.993 13.8933 567.993 15.52ZM574.852 14.92C574.852 14.1067 574.906 13.3 575.012 12.5C575.132 11.6867 575.339 10.9267 575.632 10.22C575.926 9.5 576.332 8.86667 576.852 8.32C577.372 7.76 578.032 7.32667 578.832 7.02C579.646 6.7 580.626 6.54 581.772 6.54C582.052 6.54 582.372 6.55333 582.732 6.58C583.092 6.60667 583.392 6.64667 583.632 6.7V8.78C583.099 8.63333 582.526 8.56 581.912 8.56C580.712 8.56 579.779 8.78 579.112 9.22C578.446 9.64667 577.979 10.2333 577.712 10.98C577.446 11.7267 577.286 12.5733 577.232 13.52H577.352C577.632 13.0533 578.032 12.66 578.552 12.34C579.072 12.0067 579.746 11.84 580.572 11.84C581.812 11.84 582.806 12.2333 583.552 13.02C584.299 13.7933 584.672 14.8867 584.672 16.3C584.672 17.8333 584.246 19.0333 583.392 19.9C582.539 20.7667 581.386 21.2 579.932 21.2C578.986 21.2 578.126 20.9733 577.352 20.52C576.579 20.0667 575.966 19.38 575.512 18.46C575.072 17.5267 574.852 16.3467 574.852 14.92ZM579.892 19.14C580.572 19.14 581.126 18.9133 581.552 18.46C581.979 17.9933 582.192 17.28 582.192 16.32C582.192 15.5467 582.006 14.94 581.632 14.5C581.259 14.0467 580.699 13.82 579.952 13.82C579.432 13.82 578.979 13.9333 578.592 14.16C578.206 14.3733 577.906 14.6533 577.692 15C577.492 15.3333 577.392 15.68 577.392 16.04C577.392 16.5333 577.486 17.02 577.672 17.5C577.859 17.9667 578.132 18.36 578.492 18.68C578.866 18.9867 579.332 19.14 579.892 19.14ZM586.298 14.92C586.298 14.1067 586.351 13.3 586.458 12.5C586.578 11.6867 586.784 10.9267 587.078 10.22C587.371 9.5 587.778 8.86667 588.298 8.32C588.818 7.76 589.478 7.32667 590.278 7.02C591.091 6.7 592.071 6.54 593.218 6.54C593.498 6.54 593.818 6.55333 594.178 6.58C594.538 6.60667 594.838 6.64667 595.078 6.7V8.78C594.544 8.63333 593.971 8.56 593.358 8.56C592.158 8.56 591.224 8.78 590.558 9.22C589.891 9.64667 589.424 10.2333 589.158 10.98C588.891 11.7267 588.731 12.5733 588.678 13.52H588.798C589.078 13.0533 589.478 12.66 589.998 12.34C590.518 12.0067 591.191 11.84 592.018 11.84C593.258 11.84 594.251 12.2333 594.998 13.02C595.744 13.7933 596.118 14.8867 596.118 16.3C596.118 17.8333 595.691 19.0333 594.838 19.9C593.984 20.7667 592.831 21.2 591.378 21.2C590.431 21.2 589.571 20.9733 588.798 20.52C588.024 20.0667 587.411 19.38 586.958 18.46C586.518 17.5267 586.298 16.3467 586.298 14.92ZM591.338 19.14C592.018 19.14 592.571 18.9133 592.998 18.46C593.424 17.9933 593.638 17.28 593.638 16.32C593.638 15.5467 593.451 14.94 593.078 14.5C592.704 14.0467 592.144 13.82 591.398 13.82C590.878 13.82 590.424 13.9333 590.038 14.16C589.651 14.3733 589.351 14.6533 589.138 15C588.938 15.3333 588.838 15.68 588.838 16.04C588.838 16.5333 588.931 17.02 589.118 17.5C589.304 17.9667 589.578 18.36 589.938 18.68C590.311 18.9867 590.778 19.14 591.338 19.14ZM607.523 21H597.743V19.14L601.383 15.46C602.103 14.7267 602.689 14.1 603.143 13.58C603.609 13.06 603.949 12.5733 604.163 12.12C604.389 11.6533 604.503 11.1533 604.503 10.62C604.503 9.96667 604.316 9.48 603.943 9.16C603.569 8.82667 603.076 8.66 602.463 8.66C601.863 8.66 601.303 8.78667 600.783 9.04C600.263 9.28 599.723 9.62667 599.163 10.08L597.783 8.42C598.369 7.91333 599.036 7.47333 599.783 7.1C600.529 6.71333 601.469 6.52 602.603 6.52C603.523 6.52 604.316 6.68667 604.983 7.02C605.649 7.34 606.156 7.78667 606.503 8.36C606.863 8.93333 607.043 9.6 607.043 10.36C607.043 11.1333 606.889 11.8467 606.583 12.5C606.276 13.14 605.829 13.7867 605.243 14.44C604.669 15.08 603.983 15.7733 603.183 16.52L600.923 18.7V18.82H607.523V21ZM609.008 16.7V14.58H614.088V16.7H609.008ZM625.373 12.82C625.373 13.6333 625.313 14.4467 625.193 15.26C625.073 16.06 624.867 16.82 624.573 17.54C624.28 18.2467 623.873 18.88 623.353 19.44C622.833 19.9867 622.167 20.42 621.353 20.74C620.553 21.0467 619.58 21.2 618.433 21.2C618.167 21.2 617.847 21.1867 617.473 21.16C617.1 21.1333 616.8 21.0933 616.573 21.04V18.96C616.813 19.0267 617.087 19.08 617.393 19.12C617.7 19.16 618 19.18 618.293 19.18C619.507 19.18 620.44 18.9667 621.093 18.54C621.76 18.1 622.227 17.5067 622.493 16.76C622.773 16.0133 622.933 15.1733 622.973 14.24H622.853C622.56 14.7067 622.167 15.1 621.673 15.42C621.18 15.74 620.487 15.9 619.593 15.9C618.38 15.9 617.4 15.5133 616.653 14.74C615.92 13.9667 615.553 12.8733 615.553 11.46C615.553 9.92667 615.98 8.72667 616.833 7.86C617.687 6.98 618.84 6.54 620.293 6.54C621.24 6.54 622.093 6.76667 622.853 7.22C623.627 7.67333 624.24 8.36667 624.693 9.3C625.147 10.22 625.373 11.3933 625.373 12.82ZM620.333 8.62C619.653 8.62 619.1 8.84667 618.673 9.3C618.247 9.75333 618.033 10.46 618.033 11.42C618.033 12.1933 618.213 12.8067 618.573 13.26C618.947 13.7133 619.513 13.94 620.273 13.94C620.793 13.94 621.24 13.8333 621.613 13.62C622 13.3933 622.3 13.1133 622.513 12.78C622.727 12.4333 622.833 12.0733 622.833 11.7C622.833 11.22 622.74 10.74 622.553 10.26C622.367 9.78 622.087 9.38667 621.713 9.08C621.34 8.77333 620.88 8.62 620.333 8.62ZM632.039 12.02C632.945 12.02 633.745 12.1867 634.439 12.52C635.132 12.84 635.672 13.32 636.059 13.96C636.459 14.6 636.659 15.38 636.659 16.3C636.659 17.82 636.179 19.02 635.219 19.9C634.272 20.7667 632.899 21.2 631.099 21.2C630.352 21.2 629.652 21.1333 628.999 21C628.345 20.8667 627.779 20.6733 627.299 20.42V18.18C627.792 18.4467 628.385 18.6667 629.079 18.84C629.772 19.0133 630.425 19.1 631.039 19.1C631.985 19.1 632.725 18.8933 633.259 18.48C633.805 18.0667 634.079 17.42 634.079 16.54C634.079 15.7533 633.825 15.1533 633.319 14.74C632.812 14.3133 632.025 14.1 630.959 14.1C630.585 14.1 630.179 14.1333 629.739 14.2C629.312 14.2667 628.959 14.3333 628.679 14.4L627.599 13.8L628.139 6.72H635.659V8.92H630.359L630.059 12.22C630.285 12.18 630.552 12.14 630.859 12.1C631.165 12.0467 631.559 12.02 632.039 12.02ZM638.344 16.7V14.58H643.424V16.7H638.344ZM654.749 21H644.969V19.14L648.609 15.46C649.329 14.7267 649.916 14.1 650.369 13.58C650.836 13.06 651.176 12.5733 651.389 12.12C651.616 11.6533 651.729 11.1533 651.729 10.62C651.729 9.96667 651.543 9.48 651.169 9.16C650.796 8.82667 650.303 8.66 649.689 8.66C649.089 8.66 648.529 8.78667 648.009 9.04C647.489 9.28 646.949 9.62667 646.389 10.08L645.009 8.42C645.596 7.91333 646.263 7.47333 647.009 7.1C647.756 6.71333 648.696 6.52 649.829 6.52C650.749 6.52 651.543 6.68667 652.209 7.02C652.876 7.34 653.383 7.78667 653.729 8.36C654.089 8.93333 654.269 9.6 654.269 10.36C654.269 11.1333 654.116 11.8467 653.809 12.5C653.503 13.14 653.056 13.7867 652.469 14.44C651.896 15.08 651.209 15.7733 650.409 16.52L648.149 18.7V18.82H654.749V21ZM665.635 9.98C665.635 10.9533 665.348 11.7333 664.775 12.32C664.215 12.8933 663.488 13.28 662.595 13.48V13.54C663.741 13.6867 664.608 14.0467 665.195 14.62C665.781 15.18 666.075 15.9333 666.075 16.88C666.075 17.7067 665.875 18.4467 665.475 19.1C665.075 19.7533 664.455 20.2667 663.615 20.64C662.788 21.0133 661.721 21.2 660.415 21.2C659.641 21.2 658.921 21.1333 658.255 21C657.588 20.88 656.961 20.6867 656.375 20.42V18.2C656.975 18.5067 657.615 18.74 658.295 18.9C658.975 19.06 659.615 19.14 660.215 19.14C661.375 19.14 662.195 18.9333 662.675 18.52C663.155 18.0933 663.395 17.5067 663.395 16.76C663.395 16.0533 663.115 15.5267 662.555 15.18C661.995 14.8333 661.061 14.66 659.755 14.66H658.555V12.64H659.775C661.041 12.64 661.915 12.44 662.395 12.04C662.875 11.6267 663.115 11.0867 663.115 10.42C663.115 9.84667 662.928 9.4 662.555 9.08C662.181 8.76 661.621 8.6 660.875 8.6C660.155 8.6 659.535 8.72 659.015 8.96C658.495 9.18667 658.028 9.43333 657.615 9.7L656.415 7.96C656.948 7.56 657.588 7.22 658.335 6.94C659.095 6.66 659.981 6.52 660.995 6.52C662.475 6.52 663.615 6.83333 664.415 7.46C665.228 8.07333 665.635 8.91333 665.635 9.98Z" fill="#272727"/>
<path d="M531.405 31.342C531.405 32.0233 531.19 32.5647 530.761 32.966C530.331 33.358 529.757 33.61 529.039 33.722V33.778C529.879 33.89 530.518 34.1513 530.957 34.562C531.395 34.9727 531.615 35.5093 531.615 36.172C531.615 37.0493 531.279 37.7633 530.607 38.314C529.935 38.8647 528.927 39.14 527.583 39.14C527.041 39.14 526.523 39.098 526.029 39.014C525.543 38.9393 525.091 38.7993 524.671 38.594V37.446C525.109 37.6513 525.585 37.8147 526.099 37.936C526.621 38.048 527.111 38.104 527.569 38.104C528.465 38.104 529.141 37.936 529.599 37.6C530.065 37.264 530.299 36.788 530.299 36.172C530.299 35.5373 530.028 35.0753 529.487 34.786C528.945 34.4967 528.189 34.352 527.219 34.352H525.791V33.302H527.149C528.138 33.302 528.875 33.1387 529.361 32.812C529.855 32.476 530.103 32.028 530.103 31.468C530.103 30.964 529.916 30.5767 529.543 30.306C529.169 30.0353 528.684 29.9 528.087 29.9C527.461 29.9 526.939 29.9793 526.519 30.138C526.108 30.2967 525.707 30.502 525.315 30.754L524.713 29.9C525.105 29.6107 525.585 29.368 526.155 29.172C526.733 28.9667 527.382 28.864 528.101 28.864C529.183 28.864 530.005 29.0973 530.565 29.564C531.125 30.0307 531.405 30.6233 531.405 31.342ZM536.401 31.37C537.316 31.37 537.992 31.5707 538.431 31.972C538.87 32.3733 539.089 33.0127 539.089 33.89V39H538.193L537.955 37.936H537.899C537.572 38.3467 537.227 38.65 536.863 38.846C536.508 39.042 536.014 39.14 535.379 39.14C534.698 39.14 534.133 38.9627 533.685 38.608C533.237 38.244 533.013 37.6793 533.013 36.914C533.013 36.1673 533.307 35.5933 533.895 35.192C534.483 34.7813 535.388 34.5573 536.611 34.52L537.885 34.478V34.03C537.885 33.4047 537.75 32.9707 537.479 32.728C537.208 32.4853 536.826 32.364 536.331 32.364C535.939 32.364 535.566 32.4247 535.211 32.546C534.856 32.658 534.525 32.7887 534.217 32.938L533.839 32.014C534.166 31.8367 534.553 31.6873 535.001 31.566C535.449 31.4353 535.916 31.37 536.401 31.37ZM536.765 35.374C535.832 35.4113 535.183 35.5607 534.819 35.822C534.464 36.0833 534.287 36.452 534.287 36.928C534.287 37.348 534.413 37.656 534.665 37.852C534.926 38.048 535.258 38.146 535.659 38.146C536.294 38.146 536.821 37.9733 537.241 37.628C537.661 37.2733 537.871 36.732 537.871 36.004V35.332L536.765 35.374ZM545.845 31.496H547.189L543.983 35.108L547.455 39H546.027L542.639 35.192V39H541.407V31.496H542.639V35.136L545.845 31.496ZM551.659 31.37C552.574 31.37 553.25 31.5707 553.689 31.972C554.128 32.3733 554.347 33.0127 554.347 33.89V39H553.451L553.213 37.936H553.157C552.83 38.3467 552.485 38.65 552.121 38.846C551.766 39.042 551.272 39.14 550.637 39.14C549.956 39.14 549.391 38.9627 548.943 38.608C548.495 38.244 548.271 37.6793 548.271 36.914C548.271 36.1673 548.565 35.5933 549.153 35.192C549.741 34.7813 550.646 34.5573 551.869 34.52L553.143 34.478V34.03C553.143 33.4047 553.008 32.9707 552.737 32.728C552.466 32.4853 552.084 32.364 551.589 32.364C551.197 32.364 550.824 32.4247 550.469 32.546C550.114 32.658 549.783 32.7887 549.475 32.938L549.097 32.014C549.424 31.8367 549.811 31.6873 550.259 31.566C550.707 31.4353 551.174 31.37 551.659 31.37ZM552.023 35.374C551.09 35.4113 550.441 35.5607 550.077 35.822C549.722 36.0833 549.545 36.452 549.545 36.928C549.545 37.348 549.671 37.656 549.923 37.852C550.184 38.048 550.516 38.146 550.917 38.146C551.552 38.146 552.079 37.9733 552.499 37.628C552.919 37.2733 553.129 36.732 553.129 36.004V35.332L552.023 35.374ZM558.639 31.356C559.497 31.356 560.179 31.5287 560.683 31.874C561.196 32.21 561.453 32.6953 561.453 33.33C561.453 33.7873 561.327 34.1513 561.075 34.422C560.823 34.6833 560.477 34.8747 560.039 34.996V35.052C560.337 35.136 560.613 35.2527 560.865 35.402C561.117 35.5513 561.317 35.7473 561.467 35.99C561.625 36.2327 561.705 36.5453 561.705 36.928C561.705 37.5533 561.443 38.0807 560.921 38.51C560.407 38.93 559.6 39.14 558.499 39.14C557.957 39.14 557.467 39.0933 557.029 39C556.59 38.916 556.226 38.7993 555.937 38.65V37.544C556.254 37.6933 556.627 37.8287 557.057 37.95C557.495 38.0713 557.971 38.132 558.485 38.132C559.045 38.132 559.516 38.0387 559.899 37.852C560.291 37.656 560.487 37.3247 560.487 36.858C560.487 36.018 559.773 35.598 558.345 35.598H557.337V34.59H558.149C558.793 34.59 559.306 34.506 559.689 34.338C560.081 34.1607 560.277 33.862 560.277 33.442C560.277 33.0873 560.127 32.8213 559.829 32.644C559.539 32.4667 559.119 32.378 558.569 32.378C558.158 32.378 557.794 32.42 557.477 32.504C557.169 32.5787 556.828 32.6953 556.455 32.854L556.021 31.874C556.805 31.5287 557.677 31.356 558.639 31.356ZM566.37 31.37C567.285 31.37 567.961 31.5707 568.4 31.972C568.839 32.3733 569.058 33.0127 569.058 33.89V39H568.162L567.924 37.936H567.868C567.541 38.3467 567.196 38.65 566.832 38.846C566.477 39.042 565.983 39.14 565.348 39.14C564.667 39.14 564.102 38.9627 563.654 38.608C563.206 38.244 562.982 37.6793 562.982 36.914C562.982 36.1673 563.276 35.5933 563.864 35.192C564.452 34.7813 565.357 34.5573 566.58 34.52L567.854 34.478V34.03C567.854 33.4047 567.719 32.9707 567.448 32.728C567.177 32.4853 566.795 32.364 566.3 32.364C565.908 32.364 565.535 32.4247 565.18 32.546C564.825 32.658 564.494 32.7887 564.186 32.938L563.808 32.014C564.135 31.8367 564.522 31.6873 564.97 31.566C565.418 31.4353 565.885 31.37 566.37 31.37ZM566.734 35.374C565.801 35.4113 565.152 35.5607 564.788 35.822C564.433 36.0833 564.256 36.452 564.256 36.928C564.256 37.348 564.382 37.656 564.634 37.852C564.895 38.048 565.227 38.146 565.628 38.146C566.263 38.146 566.79 37.9733 567.21 37.628C567.63 37.2733 567.84 36.732 567.84 36.004V35.332L566.734 35.374ZM576.556 32.532H574.106V39H572.888V32.532H570.466V31.496H576.556V32.532ZM581.492 34.576C583.442 34.576 584.418 35.2853 584.418 36.704C584.418 37.404 584.18 37.964 583.704 38.384C583.228 38.7947 582.472 39 581.436 39H578.034V31.496H579.266V34.576H581.492ZM583.186 36.774C583.186 36.3167 583.022 36.0087 582.696 35.85C582.378 35.682 581.93 35.598 581.352 35.598H579.266V38.006H581.38C581.902 38.006 582.332 37.9127 582.668 37.726C583.013 37.5393 583.186 37.222 583.186 36.774ZM591.957 31.356C592.816 31.356 593.497 31.5287 594.001 31.874C594.514 32.21 594.771 32.6953 594.771 33.33C594.771 33.7873 594.645 34.1513 594.393 34.422C594.141 34.6833 593.796 34.8747 593.357 34.996V35.052C593.656 35.136 593.931 35.2527 594.183 35.402C594.435 35.5513 594.636 35.7473 594.785 35.99C594.944 36.2327 595.023 36.5453 595.023 36.928C595.023 37.5533 594.762 38.0807 594.239 38.51C593.726 38.93 592.918 39.14 591.817 39.14C591.276 39.14 590.786 39.0933 590.347 39C589.908 38.916 589.544 38.7993 589.255 38.65V37.544C589.572 37.6933 589.946 37.8287 590.375 37.95C590.814 38.0713 591.29 38.132 591.803 38.132C592.363 38.132 592.834 38.0387 593.217 37.852C593.609 37.656 593.805 37.3247 593.805 36.858C593.805 36.018 593.091 35.598 591.663 35.598H590.655V34.59H591.467C592.111 34.59 592.624 34.506 593.007 34.338C593.399 34.1607 593.595 33.862 593.595 33.442C593.595 33.0873 593.446 32.8213 593.147 32.644C592.858 32.4667 592.438 32.378 591.887 32.378C591.476 32.378 591.112 32.42 590.795 32.504C590.487 32.5787 590.146 32.6953 589.773 32.854L589.339 31.874C590.123 31.5287 590.996 31.356 591.957 31.356ZM602.88 33.386C602.88 33.8527 602.74 34.2167 602.46 34.478C602.18 34.7393 601.821 34.9167 601.382 35.01V35.066C601.849 35.1313 602.255 35.2993 602.6 35.57C602.946 35.8313 603.118 36.242 603.118 36.802C603.118 37.4367 602.88 37.964 602.404 38.384C601.938 38.7947 601.163 39 600.08 39H596.846V31.496H600.066C600.598 31.496 601.074 31.5567 601.494 31.678C601.924 31.79 602.26 31.986 602.502 32.266C602.754 32.5367 602.88 32.91 602.88 33.386ZM601.634 33.54C601.634 33.1853 601.504 32.9287 601.242 32.77C600.99 32.602 600.575 32.518 599.996 32.518H598.078V34.576H599.772C601.014 34.576 601.634 34.2307 601.634 33.54ZM601.844 36.802C601.844 36.3727 601.681 36.0647 601.354 35.878C601.028 35.6913 600.547 35.598 599.912 35.598H598.078V38.006H599.94C600.556 38.006 601.028 37.9173 601.354 37.74C601.681 37.5533 601.844 37.2407 601.844 36.802ZM611.437 35.234C611.437 36.4753 611.119 37.4367 610.485 38.118C609.859 38.7993 609.01 39.14 607.937 39.14C607.274 39.14 606.681 38.9907 606.159 38.692C605.645 38.384 605.239 37.9407 604.941 37.362C604.642 36.774 604.493 36.0647 604.493 35.234C604.493 33.9927 604.805 33.036 605.431 32.364C606.056 31.692 606.905 31.356 607.979 31.356C608.66 31.356 609.257 31.51 609.771 31.818C610.293 32.1167 610.699 32.5553 610.989 33.134C611.287 33.7033 611.437 34.4033 611.437 35.234ZM605.767 35.234C605.767 36.1207 605.939 36.8253 606.285 37.348C606.639 37.8613 607.199 38.118 607.965 38.118C608.721 38.118 609.276 37.8613 609.631 37.348C609.985 36.8253 610.163 36.1207 610.163 35.234C610.163 34.3473 609.985 33.652 609.631 33.148C609.276 32.644 608.716 32.392 607.951 32.392C607.185 32.392 606.63 32.644 606.285 33.148C605.939 33.652 605.767 34.3473 605.767 35.234ZM614.621 31.496V34.618H618.695V31.496H619.927V39H618.695V35.654H614.621V39H613.389V31.496H614.621ZM628.827 35.234C628.827 36.4753 628.51 37.4367 627.875 38.118C627.25 38.7993 626.401 39.14 625.327 39.14C624.665 39.14 624.072 38.9907 623.549 38.692C623.036 38.384 622.63 37.9407 622.331 37.362C622.033 36.774 621.883 36.0647 621.883 35.234C621.883 33.9927 622.196 33.036 622.821 32.364C623.447 31.692 624.296 31.356 625.369 31.356C626.051 31.356 626.648 31.51 627.161 31.818C627.684 32.1167 628.09 32.5553 628.379 33.134C628.678 33.7033 628.827 34.4033 628.827 35.234ZM623.157 35.234C623.157 36.1207 623.33 36.8253 623.675 37.348C624.03 37.8613 624.59 38.118 625.355 38.118C626.111 38.118 626.667 37.8613 627.021 37.348C627.376 36.8253 627.553 36.1207 627.553 35.234C627.553 34.3473 627.376 33.652 627.021 33.148C626.667 32.644 626.107 32.392 625.341 32.392C624.576 32.392 624.021 32.644 623.675 33.148C623.33 33.652 623.157 34.3473 623.157 35.234ZM635.218 31.496H636.562L633.356 35.108L636.828 39H635.4L632.012 35.192V39H630.78V31.496H632.012V35.136L635.218 31.496Z" fill="#272727"/>
<path d="M524.139 40.75H636.996V41.45H524.139V40.75Z" fill="#272727"/>
<path d="M100.358 17V7.004H107.862V17H106.616V8.11H101.618V17H100.358ZM114 9.356C114.924 9.356 115.666 9.678 116.226 10.322C116.796 10.966 117.08 11.9367 117.08 13.234C117.08 14.5127 116.796 15.4833 116.226 16.146C115.666 16.8087 114.92 17.14 113.986 17.14C113.408 17.14 112.927 17.0327 112.544 16.818C112.171 16.594 111.877 16.3373 111.662 16.048H111.578C111.597 16.2067 111.616 16.4073 111.634 16.65C111.653 16.8927 111.662 17.1027 111.662 17.28V20.36H110.43V9.496H111.438L111.606 10.518H111.662C111.886 10.1913 112.18 9.916 112.544 9.692C112.908 9.468 113.394 9.356 114 9.356ZM113.776 10.392C113.011 10.392 112.47 10.6067 112.152 11.036C111.844 11.4653 111.681 12.1187 111.662 12.996V13.234C111.662 14.158 111.812 14.872 112.11 15.376C112.418 15.8707 112.983 16.118 113.804 16.118C114.262 16.118 114.635 15.992 114.924 15.74C115.223 15.488 115.442 15.1473 115.582 14.718C115.732 14.2793 115.806 13.78 115.806 13.22C115.806 12.3613 115.638 11.6753 115.302 11.162C114.976 10.6487 114.467 10.392 113.776 10.392ZM119.506 17H118.078L120.22 13.85C119.93 13.7753 119.65 13.6587 119.38 13.5C119.109 13.332 118.89 13.1033 118.722 12.814C118.554 12.5153 118.47 12.1467 118.47 11.708C118.47 10.9893 118.712 10.4433 119.198 10.07C119.683 9.68733 120.327 9.496 121.13 9.496H124.49V17H123.258V14.018H121.438L119.506 17ZM119.66 11.722C119.66 12.1513 119.818 12.4733 120.136 12.688C120.462 12.8933 120.915 12.996 121.494 12.996H123.258V10.518H121.256C120.686 10.518 120.276 10.63 120.024 10.854C119.781 11.078 119.66 11.3673 119.66 11.722ZM134.914 9.496V17H133.808V12.212C133.808 12.016 133.812 11.8107 133.822 11.596C133.84 11.3813 133.859 11.1713 133.878 10.966H133.836L131.386 17H130.35L127.97 10.966H127.928C127.956 11.386 127.97 11.8153 127.97 12.254V17H126.864V9.496H128.502L130.868 15.53L133.276 9.496H134.914ZM137.309 17V9.496H138.541V12.576H140.487C141.458 12.576 142.176 12.7533 142.643 13.108C143.11 13.4627 143.343 13.9947 143.343 14.704C143.343 15.404 143.114 15.964 142.657 16.384C142.2 16.7947 141.458 17 140.431 17H137.309ZM144.589 17V9.496H145.821V17H144.589ZM140.319 16.006C140.851 16.006 141.285 15.9173 141.621 15.74C141.957 15.5533 142.125 15.2313 142.125 14.774C142.125 14.3167 141.971 14.0087 141.663 13.85C141.355 13.682 140.912 13.598 140.333 13.598H138.541V16.006H140.319ZM151.104 9.356C151.748 9.356 152.298 9.496 152.756 9.776C153.222 10.056 153.577 10.4527 153.82 10.966C154.072 11.47 154.198 12.0627 154.198 12.744V13.486H149.06C149.078 14.3353 149.293 14.984 149.704 15.432C150.124 15.8707 150.707 16.09 151.454 16.09C151.93 16.09 152.35 16.048 152.714 15.964C153.087 15.8707 153.47 15.74 153.862 15.572V16.65C153.479 16.818 153.101 16.9393 152.728 17.014C152.354 17.098 151.911 17.14 151.398 17.14C150.688 17.14 150.058 16.9953 149.508 16.706C148.966 16.4167 148.542 15.9873 148.234 15.418C147.935 14.8393 147.786 14.1347 147.786 13.304C147.786 12.4827 147.921 11.778 148.192 11.19C148.472 10.602 148.859 10.1493 149.354 9.832C149.858 9.51467 150.441 9.356 151.104 9.356ZM151.09 10.364C150.502 10.364 150.035 10.5553 149.69 10.938C149.354 11.3113 149.153 11.834 149.088 12.506H152.91C152.9 11.8713 152.751 11.358 152.462 10.966C152.172 10.5647 151.715 10.364 151.09 10.364ZM163.315 9.356C164.239 9.356 164.981 9.678 165.541 10.322C166.11 10.966 166.395 11.9367 166.395 13.234C166.395 14.5127 166.11 15.4833 165.541 16.146C164.981 16.8087 164.234 17.14 163.301 17.14C162.722 17.14 162.241 17.0327 161.859 16.818C161.485 16.594 161.191 16.3373 160.977 16.048H160.893C160.911 16.2067 160.93 16.4073 160.949 16.65C160.967 16.8927 160.977 17.1027 160.977 17.28V20.36H159.745V9.496H160.753L160.921 10.518H160.977C161.201 10.1913 161.495 9.916 161.859 9.692C162.223 9.468 162.708 9.356 163.315 9.356ZM163.091 10.392C162.325 10.392 161.784 10.6067 161.467 11.036C161.159 11.4653 160.995 12.1187 160.977 12.996V13.234C160.977 14.158 161.126 14.872 161.425 15.376C161.733 15.8707 162.297 16.118 163.119 16.118C163.576 16.118 163.949 15.992 164.239 15.74C164.537 15.488 164.757 15.1473 164.897 14.718C165.046 14.2793 165.121 13.78 165.121 13.22C165.121 12.3613 164.953 11.6753 164.617 11.162C164.29 10.6487 163.781 10.392 163.091 10.392ZM171.2 9.37C172.115 9.37 172.791 9.57067 173.23 9.972C173.669 10.3733 173.888 11.0127 173.888 11.89V17H172.992L172.754 15.936H172.698C172.371 16.3467 172.026 16.65 171.662 16.846C171.307 17.042 170.813 17.14 170.178 17.14C169.497 17.14 168.932 16.9627 168.484 16.608C168.036 16.244 167.812 15.6793 167.812 14.914C167.812 14.1673 168.106 13.5933 168.694 13.192C169.282 12.7813 170.187 12.5573 171.41 12.52L172.684 12.478V12.03C172.684 11.4047 172.549 10.9707 172.278 10.728C172.007 10.4853 171.625 10.364 171.13 10.364C170.738 10.364 170.365 10.4247 170.01 10.546C169.655 10.658 169.324 10.7887 169.016 10.938L168.638 10.014C168.965 9.83667 169.352 9.68733 169.8 9.566C170.248 9.43533 170.715 9.37 171.2 9.37ZM171.564 13.374C170.631 13.4113 169.982 13.5607 169.618 13.822C169.263 14.0833 169.086 14.452 169.086 14.928C169.086 15.348 169.212 15.656 169.464 15.852C169.725 16.048 170.057 16.146 170.458 16.146C171.093 16.146 171.62 15.9733 172.04 15.628C172.46 15.2733 172.67 14.732 172.67 14.004V13.332L171.564 13.374ZM175.814 12.492C175.814 10.8493 176.061 9.57067 176.556 8.656C177.05 7.732 177.848 7.15333 178.95 6.92C179.556 6.78933 180.149 6.67267 180.728 6.57C181.306 6.46733 181.848 6.374 182.352 6.29L182.562 7.368C182.235 7.41467 181.866 7.47533 181.456 7.55C181.045 7.61533 180.639 7.68533 180.238 7.76C179.836 7.82533 179.491 7.89067 179.202 7.956C178.595 8.08667 178.114 8.404 177.76 8.908C177.405 9.40267 177.204 10.1773 177.158 11.232H177.242C177.372 11.0547 177.55 10.8727 177.774 10.686C178.007 10.4993 178.282 10.3407 178.6 10.21C178.926 10.0793 179.295 10.014 179.706 10.014C180.676 10.014 181.409 10.3267 181.904 10.952C182.398 11.5773 182.646 12.3893 182.646 13.388C182.646 14.2187 182.501 14.914 182.212 15.474C181.922 16.034 181.521 16.454 181.008 16.734C180.494 17.0047 179.897 17.14 179.216 17.14C178.18 17.14 177.354 16.7433 176.738 15.95C176.122 15.1567 175.814 14.004 175.814 12.492ZM179.314 16.118C179.92 16.118 180.41 15.922 180.784 15.53C181.157 15.138 181.344 14.466 181.344 13.514C181.344 12.7487 181.199 12.1467 180.91 11.708C180.63 11.26 180.163 11.036 179.51 11.036C179.099 11.036 178.726 11.1293 178.39 11.316C178.054 11.4933 177.774 11.6987 177.55 11.932C177.326 12.1653 177.167 12.3613 177.074 12.52C177.074 12.9773 177.106 13.4207 177.172 13.85C177.237 14.2793 177.349 14.6667 177.508 15.012C177.676 15.348 177.904 15.6187 178.194 15.824C178.492 16.02 178.866 16.118 179.314 16.118ZM191.11 13.234C191.11 14.4753 190.793 15.4367 190.158 16.118C189.533 16.7993 188.684 17.14 187.61 17.14C186.948 17.14 186.355 16.9907 185.832 16.692C185.319 16.384 184.913 15.9407 184.614 15.362C184.316 14.774 184.166 14.0647 184.166 13.234C184.166 11.9927 184.479 11.036 185.104 10.364C185.73 9.692 186.579 9.356 187.652 9.356C188.334 9.356 188.931 9.51 189.444 9.818C189.967 10.1167 190.373 10.5553 190.662 11.134C190.961 11.7033 191.11 12.4033 191.11 13.234ZM185.44 13.234C185.44 14.1207 185.613 14.8253 185.958 15.348C186.313 15.8613 186.873 16.118 187.638 16.118C188.394 16.118 188.95 15.8613 189.304 15.348C189.659 14.8253 189.836 14.1207 189.836 13.234C189.836 12.3473 189.659 11.652 189.304 11.148C188.95 10.644 188.39 10.392 187.624 10.392C186.859 10.392 186.304 10.644 185.958 11.148C185.613 11.652 185.44 12.3473 185.44 13.234ZM198.106 10.532H195.656V17H194.438V10.532H192.016V9.496H198.106V10.532ZM205.972 13.234C205.972 14.4753 205.654 15.4367 205.02 16.118C204.394 16.7993 203.545 17.14 202.472 17.14C201.809 17.14 201.216 16.9907 200.694 16.692C200.18 16.384 199.774 15.9407 199.476 15.362C199.177 14.774 199.028 14.0647 199.028 13.234C199.028 11.9927 199.34 11.036 199.966 10.364C200.591 9.692 201.44 9.356 202.514 9.356C203.195 9.356 203.792 9.51 204.306 9.818C204.828 10.1167 205.234 10.5553 205.524 11.134C205.822 11.7033 205.972 12.4033 205.972 13.234ZM200.302 13.234C200.302 14.1207 200.474 14.8253 200.82 15.348C201.174 15.8613 201.734 16.118 202.5 16.118C203.256 16.118 203.811 15.8613 204.166 15.348C204.52 14.8253 204.698 14.1207 204.698 13.234C204.698 12.3473 204.52 11.652 204.166 11.148C203.811 10.644 203.251 10.392 202.486 10.392C201.72 10.392 201.165 10.644 200.82 11.148C200.474 11.652 200.302 12.3473 200.302 13.234ZM213.496 9.496V15.964H214.588V19.604H213.398V17H208.176V19.604H207V15.964H207.602C208.246 15.0773 208.727 14.0693 209.044 12.94C209.371 11.8013 209.539 10.6533 209.548 9.496H213.496ZM210.64 10.462C210.603 11.0967 210.505 11.7547 210.346 12.436C210.188 13.108 209.982 13.752 209.73 14.368C209.488 14.984 209.203 15.516 208.876 15.964H212.306V10.462H210.64ZM218.901 9.37C219.816 9.37 220.492 9.57067 220.931 9.972C221.37 10.3733 221.589 11.0127 221.589 11.89V17H220.693L220.455 15.936H220.399C220.072 16.3467 219.727 16.65 219.363 16.846C219.008 17.042 218.514 17.14 217.879 17.14C217.198 17.14 216.633 16.9627 216.185 16.608C215.737 16.244 215.513 15.6793 215.513 14.914C215.513 14.1673 215.807 13.5933 216.395 13.192C216.983 12.7813 217.888 12.5573 219.111 12.52L220.385 12.478V12.03C220.385 11.4047 220.25 10.9707 219.979 10.728C219.708 10.4853 219.326 10.364 218.831 10.364C218.439 10.364 218.066 10.4247 217.711 10.546C217.356 10.658 217.025 10.7887 216.717 10.938L216.339 10.014C216.666 9.83667 217.053 9.68733 217.501 9.566C217.949 9.43533 218.416 9.37 218.901 9.37ZM219.265 13.374C218.332 13.4113 217.683 13.5607 217.319 13.822C216.964 14.0833 216.787 14.452 216.787 14.928C216.787 15.348 216.913 15.656 217.165 15.852C217.426 16.048 217.758 16.146 218.159 16.146C218.794 16.146 219.321 15.9733 219.741 15.628C220.161 15.2733 220.371 14.732 220.371 14.004V13.332L219.265 13.374ZM229.087 10.532H226.637V17H225.419V10.532H222.997V9.496H229.087V10.532ZM233.326 9.356C233.97 9.356 234.521 9.496 234.978 9.776C235.445 10.056 235.8 10.4527 236.042 10.966C236.294 11.47 236.42 12.0627 236.42 12.744V13.486H231.282C231.301 14.3353 231.516 14.984 231.926 15.432C232.346 15.8707 232.93 16.09 233.676 16.09C234.152 16.09 234.572 16.048 234.936 15.964C235.31 15.8707 235.692 15.74 236.084 15.572V16.65C235.702 16.818 235.324 16.9393 234.95 17.014C234.577 17.098 234.134 17.14 233.62 17.14C232.911 17.14 232.281 16.9953 231.73 16.706C231.189 16.4167 230.764 15.9873 230.456 15.418C230.158 14.8393 230.008 14.1347 230.008 13.304C230.008 12.4827 230.144 11.778 230.414 11.19C230.694 10.602 231.082 10.1493 231.576 9.832C232.08 9.51467 232.664 9.356 233.326 9.356ZM233.312 10.364C232.724 10.364 232.258 10.5553 231.912 10.938C231.576 11.3113 231.376 11.834 231.31 12.506H235.132C235.123 11.8713 234.974 11.358 234.684 10.966C234.395 10.5647 233.938 10.364 233.312 10.364ZM244.043 17H242.797V10.518H240.585C240.463 12.0953 240.295 13.3693 240.081 14.34C239.866 15.3013 239.581 16.0013 239.227 16.44C238.872 16.8787 238.424 17.098 237.883 17.098C237.761 17.098 237.64 17.0887 237.519 17.07C237.407 17.0607 237.313 17.0373 237.239 17V16.076C237.295 16.0947 237.355 16.1087 237.421 16.118C237.486 16.1273 237.551 16.132 237.617 16.132C238.121 16.132 238.522 15.5953 238.821 14.522C239.129 13.4487 239.362 11.7733 239.521 9.496H244.043V17ZM247.586 14.074C247.586 14.186 247.582 14.354 247.572 14.578C247.563 14.802 247.549 15.026 247.53 15.25C247.521 15.474 247.512 15.6513 247.502 15.782L251.52 9.496H253.032V17H251.884V12.576C251.884 12.4267 251.884 12.2307 251.884 11.988C251.894 11.7453 251.903 11.5073 251.912 11.274C251.922 11.0313 251.931 10.8493 251.94 10.728L247.95 17H246.424V9.496H247.586V14.074ZM265.399 9.496V17H264.167V10.546H260.289V17H259.057V9.496H265.399ZM274.318 13.234C274.318 14.4753 274 15.4367 273.366 16.118C272.74 16.7993 271.891 17.14 270.818 17.14C270.155 17.14 269.562 16.9907 269.04 16.692C268.526 16.384 268.12 15.9407 267.822 15.362C267.523 14.774 267.374 14.0647 267.374 13.234C267.374 11.9927 267.686 11.036 268.312 10.364C268.937 9.692 269.786 9.356 270.86 9.356C271.541 9.356 272.138 9.51 272.652 9.818C273.174 10.1167 273.58 10.5553 273.87 11.134C274.168 11.7033 274.318 12.4033 274.318 13.234ZM268.648 13.234C268.648 14.1207 268.82 14.8253 269.166 15.348C269.52 15.8613 270.08 16.118 270.846 16.118C271.602 16.118 272.157 15.8613 272.512 15.348C272.866 14.8253 273.044 14.1207 273.044 13.234C273.044 12.3473 272.866 11.652 272.512 11.148C272.157 10.644 271.597 10.392 270.832 10.392C270.066 10.392 269.511 10.644 269.166 11.148C268.82 11.652 268.648 12.3473 268.648 13.234ZM283.477 9.356C284.401 9.356 285.143 9.678 285.703 10.322C286.272 10.966 286.557 11.9367 286.557 13.234C286.557 14.5127 286.272 15.4833 285.703 16.146C285.143 16.8087 284.396 17.14 283.463 17.14C282.884 17.14 282.403 17.0327 282.021 16.818C281.647 16.594 281.353 16.3373 281.139 16.048H281.055C281.073 16.2067 281.092 16.4073 281.111 16.65C281.129 16.8927 281.139 17.1027 281.139 17.28V20.36H279.907V9.496H280.915L281.083 10.518H281.139C281.363 10.1913 281.657 9.916 282.021 9.692C282.385 9.468 282.87 9.356 283.477 9.356ZM283.253 10.392C282.487 10.392 281.946 10.6067 281.629 11.036C281.321 11.4653 281.157 12.1187 281.139 12.996V13.234C281.139 14.158 281.288 14.872 281.587 15.376C281.895 15.8707 282.459 16.118 283.281 16.118C283.738 16.118 284.111 15.992 284.401 15.74C284.699 15.488 284.919 15.1473 285.059 14.718C285.208 14.2793 285.283 13.78 285.283 13.22C285.283 12.3613 285.115 11.6753 284.779 11.162C284.452 10.6487 283.943 10.392 283.253 10.392ZM291.418 9.356C292.062 9.356 292.613 9.496 293.07 9.776C293.537 10.056 293.891 10.4527 294.134 10.966C294.386 11.47 294.512 12.0627 294.512 12.744V13.486H289.374C289.393 14.3353 289.607 14.984 290.018 15.432C290.438 15.8707 291.021 16.09 291.768 16.09C292.244 16.09 292.664 16.048 293.028 15.964C293.401 15.8707 293.784 15.74 294.176 15.572V16.65C293.793 16.818 293.415 16.9393 293.042 17.014C292.669 17.098 292.225 17.14 291.712 17.14C291.003 17.14 290.373 16.9953 289.822 16.706C289.281 16.4167 288.856 15.9873 288.548 15.418C288.249 14.8393 288.1 14.1347 288.1 13.304C288.1 12.4827 288.235 11.778 288.506 11.19C288.786 10.602 289.173 10.1493 289.668 9.832C290.172 9.51467 290.755 9.356 291.418 9.356ZM291.404 10.364C290.816 10.364 290.349 10.5553 290.004 10.938C289.668 11.3113 289.467 11.834 289.402 12.506H293.224C293.215 11.8713 293.065 11.358 292.776 10.966C292.487 10.5647 292.029 10.364 291.404 10.364ZM304.472 9.496V17H303.366V12.212C303.366 12.016 303.371 11.8107 303.38 11.596C303.399 11.3813 303.418 11.1713 303.436 10.966H303.394L300.944 17H299.908L297.528 10.966H297.486C297.514 11.386 297.528 11.8153 297.528 12.254V17H296.422V9.496H298.06L300.426 15.53L302.834 9.496H304.472ZM313.392 13.234C313.392 14.4753 313.074 15.4367 312.44 16.118C311.814 16.7993 310.965 17.14 309.892 17.14C309.229 17.14 308.636 16.9907 308.114 16.692C307.6 16.384 307.194 15.9407 306.896 15.362C306.597 14.774 306.448 14.0647 306.448 13.234C306.448 11.9927 306.76 11.036 307.386 10.364C308.011 9.692 308.86 9.356 309.934 9.356C310.615 9.356 311.212 9.51 311.726 9.818C312.248 10.1167 312.654 10.5553 312.944 11.134C313.242 11.7033 313.392 12.4033 313.392 13.234ZM307.722 13.234C307.722 14.1207 307.894 14.8253 308.24 15.348C308.594 15.8613 309.154 16.118 309.92 16.118C310.676 16.118 311.231 15.8613 311.586 15.348C311.94 14.8253 312.118 14.1207 312.118 13.234C312.118 12.3473 311.94 11.652 311.586 11.148C311.231 10.644 310.671 10.392 309.906 10.392C309.14 10.392 308.585 10.644 308.24 11.148C307.894 11.652 307.722 12.3473 307.722 13.234ZM316.576 9.496V12.618H320.65V9.496H321.882V17H320.65V13.654H316.576V17H315.344V9.496H316.576ZM329.438 10.532H326.988V17H325.77V10.532H323.348V9.496H329.438V10.532ZM329.741 9.496H331.057L332.681 13.766C332.821 14.1393 332.947 14.4987 333.059 14.844C333.171 15.18 333.255 15.502 333.311 15.81H333.367C333.423 15.5767 333.511 15.2733 333.633 14.9C333.754 14.5173 333.88 14.1347 334.011 13.752L335.537 9.496H336.867L333.633 18.036C333.371 18.7453 333.031 19.31 332.611 19.73C332.2 20.15 331.631 20.36 330.903 20.36C330.679 20.36 330.483 20.346 330.315 20.318C330.147 20.2993 330.002 20.276 329.881 20.248V19.268C329.983 19.2867 330.105 19.3053 330.245 19.324C330.394 19.3427 330.548 19.352 330.707 19.352C331.136 19.352 331.481 19.2307 331.743 18.988C332.013 18.7453 332.223 18.4233 332.373 18.022L332.765 17.028L329.741 9.496ZM104.628 31.496H105.972L102.766 35.108L106.238 39H104.81L101.422 35.192V39H100.19V31.496H101.422V35.136L104.628 31.496ZM113.634 33.386C113.634 33.8527 113.494 34.2167 113.214 34.478C112.934 34.7393 112.575 34.9167 112.136 35.01V35.066C112.603 35.1313 113.009 35.2993 113.354 35.57C113.699 35.8313 113.872 36.242 113.872 36.802C113.872 37.4367 113.634 37.964 113.158 38.384C112.691 38.7947 111.917 39 110.834 39H107.6V31.496H110.82C111.352 31.496 111.828 31.5567 112.248 31.678C112.677 31.79 113.013 31.986 113.256 32.266C113.508 32.5367 113.634 32.91 113.634 33.386ZM112.388 33.54C112.388 33.1853 112.257 32.9287 111.996 32.77C111.744 32.602 111.329 32.518 110.75 32.518H108.832V34.576H110.526C111.767 34.576 112.388 34.2307 112.388 33.54ZM112.598 36.802C112.598 36.3727 112.435 36.0647 112.108 35.878C111.781 35.6913 111.301 35.598 110.666 35.598H108.832V38.006H110.694C111.31 38.006 111.781 37.9173 112.108 37.74C112.435 37.5533 112.598 37.2407 112.598 36.802ZM118.509 31.37C119.423 31.37 120.1 31.5707 120.539 31.972C120.977 32.3733 121.197 33.0127 121.197 33.89V39H120.301L120.063 37.936H120.007C119.68 38.3467 119.335 38.65 118.971 38.846C118.616 39.042 118.121 39.14 117.487 39.14C116.805 39.14 116.241 38.9627 115.793 38.608C115.345 38.244 115.121 37.6793 115.121 36.914C115.121 36.1673 115.415 35.5933 116.003 35.192C116.591 34.7813 117.496 34.5573 118.719 34.52L119.993 34.478V34.03C119.993 33.4047 119.857 32.9707 119.587 32.728C119.316 32.4853 118.933 32.364 118.439 32.364C118.047 32.364 117.673 32.4247 117.319 32.546C116.964 32.658 116.633 32.7887 116.325 32.938L115.947 32.014C116.273 31.8367 116.661 31.6873 117.109 31.566C117.557 31.4353 118.023 31.37 118.509 31.37ZM118.873 35.374C117.939 35.4113 117.291 35.5607 116.927 35.822C116.572 36.0833 116.395 36.452 116.395 36.928C116.395 37.348 116.521 37.656 116.773 37.852C117.034 38.048 117.365 38.146 117.767 38.146C118.401 38.146 118.929 37.9733 119.349 37.628C119.769 37.2733 119.979 36.732 119.979 36.004V35.332L118.873 35.374ZM127.084 31.356C128.008 31.356 128.75 31.678 129.31 32.322C129.88 32.966 130.164 33.9367 130.164 35.234C130.164 36.5127 129.88 37.4833 129.31 38.146C128.75 38.8087 128.004 39.14 127.07 39.14C126.492 39.14 126.011 39.0327 125.628 38.818C125.255 38.594 124.961 38.3373 124.746 38.048H124.662C124.681 38.2067 124.7 38.4073 124.718 38.65C124.737 38.8927 124.746 39.1027 124.746 39.28V42.36H123.514V31.496H124.522L124.69 32.518H124.746C124.97 32.1913 125.264 31.916 125.628 31.692C125.992 31.468 126.478 31.356 127.084 31.356ZM126.86 32.392C126.095 32.392 125.554 32.6067 125.236 33.036C124.928 33.4653 124.765 34.1187 124.746 34.996V35.234C124.746 36.158 124.896 36.872 125.194 37.376C125.502 37.8707 126.067 38.118 126.888 38.118C127.346 38.118 127.719 37.992 128.008 37.74C128.307 37.488 128.526 37.1473 128.666 36.718C128.816 36.2793 128.89 35.78 128.89 35.22C128.89 34.3613 128.722 33.6753 128.386 33.162C128.06 32.6487 127.551 32.392 126.86 32.392ZM137.171 32.532H134.721V39H133.503V32.532H131.081V31.496H137.171V32.532ZM139.811 36.074C139.811 36.186 139.806 36.354 139.797 36.578C139.788 36.802 139.774 37.026 139.755 37.25C139.746 37.474 139.736 37.6513 139.727 37.782L143.745 31.496H145.257V39H144.109V34.576C144.109 34.4267 144.109 34.2307 144.109 33.988C144.118 33.7453 144.128 33.5073 144.137 33.274C144.146 33.0313 144.156 32.8493 144.165 32.728L140.175 39H138.649V31.496H139.811V36.074ZM151.215 31.356C152.139 31.356 152.881 31.678 153.441 32.322C154.01 32.966 154.295 33.9367 154.295 35.234C154.295 36.5127 154.01 37.4833 153.441 38.146C152.881 38.8087 152.134 39.14 151.201 39.14C150.622 39.14 150.142 39.0327 149.759 38.818C149.386 38.594 149.092 38.3373 148.877 38.048H148.793C148.812 38.2067 148.83 38.4073 148.849 38.65C148.868 38.8927 148.877 39.1027 148.877 39.28V42.36H147.645V31.496H148.653L148.821 32.518H148.877C149.101 32.1913 149.395 31.916 149.759 31.692C150.123 31.468 150.608 31.356 151.215 31.356ZM150.991 32.392C150.226 32.392 149.684 32.6067 149.367 33.036C149.059 33.4653 148.896 34.1187 148.877 34.996V35.234C148.877 36.158 149.026 36.872 149.325 37.376C149.633 37.8707 150.198 38.118 151.019 38.118C151.476 38.118 151.85 37.992 152.139 37.74C152.438 37.488 152.657 37.1473 152.797 36.718C152.946 36.2793 153.021 35.78 153.021 35.22C153.021 34.3613 152.853 33.6753 152.517 33.162C152.19 32.6487 151.682 32.392 150.991 32.392ZM165.929 33.386C165.929 33.8527 165.789 34.2167 165.509 34.478C165.229 34.7393 164.87 34.9167 164.431 35.01V35.066C164.898 35.1313 165.304 35.2993 165.649 35.57C165.994 35.8313 166.167 36.242 166.167 36.802C166.167 37.4367 165.929 37.964 165.453 38.384C164.986 38.7947 164.212 39 163.129 39H159.895V31.496H163.115C163.647 31.496 164.123 31.5567 164.543 31.678C164.972 31.79 165.308 31.986 165.551 32.266C165.803 32.5367 165.929 32.91 165.929 33.386ZM164.683 33.54C164.683 33.1853 164.552 32.9287 164.291 32.77C164.039 32.602 163.624 32.518 163.045 32.518H161.127V34.576H162.821C164.062 34.576 164.683 34.2307 164.683 33.54ZM164.893 36.802C164.893 36.3727 164.73 36.0647 164.403 35.878C164.076 35.6913 163.596 35.598 162.961 35.598H161.127V38.006H162.989C163.605 38.006 164.076 37.9173 164.403 37.74C164.73 37.5533 164.893 37.2407 164.893 36.802ZM176.176 39L172.886 30.236H172.83C172.858 30.5253 172.882 30.9173 172.9 31.412C172.919 31.8973 172.928 32.406 172.928 32.938V39H171.766V29.004H173.628L176.708 37.194H176.764L179.9 29.004H181.748V39H180.502V32.854C180.502 32.3687 180.512 31.888 180.53 31.412C180.558 30.936 180.582 30.5487 180.6 30.25H180.544L177.212 39H176.176ZM190.823 35.234C190.823 36.4753 190.506 37.4367 189.871 38.118C189.246 38.7993 188.397 39.14 187.323 39.14C186.661 39.14 186.068 38.9907 185.545 38.692C185.032 38.384 184.626 37.9407 184.327 37.362C184.029 36.774 183.879 36.0647 183.879 35.234C183.879 33.9927 184.192 33.036 184.817 32.364C185.443 31.692 186.292 31.356 187.365 31.356C188.047 31.356 188.644 31.51 189.157 31.818C189.68 32.1167 190.086 32.5553 190.375 33.134C190.674 33.7033 190.823 34.4033 190.823 35.234ZM185.153 35.234C185.153 36.1207 185.326 36.8253 185.671 37.348C186.026 37.8613 186.586 38.118 187.351 38.118C188.107 38.118 188.663 37.8613 189.017 37.348C189.372 36.8253 189.549 36.1207 189.549 35.234C189.549 34.3473 189.372 33.652 189.017 33.148C188.663 32.644 188.103 32.392 187.337 32.392C186.572 32.392 186.017 32.644 185.671 33.148C185.326 33.652 185.153 34.3473 185.153 35.234ZM195.786 39.14C195.123 39.14 194.531 39.0047 194.008 38.734C193.495 38.4633 193.089 38.0433 192.79 37.474C192.501 36.9047 192.356 36.1767 192.356 35.29C192.356 34.366 192.51 33.6147 192.818 33.036C193.126 32.4573 193.541 32.0327 194.064 31.762C194.596 31.4913 195.198 31.356 195.87 31.356C196.253 31.356 196.621 31.398 196.976 31.482C197.331 31.5567 197.62 31.65 197.844 31.762L197.466 32.784C197.242 32.7 196.981 32.6207 196.682 32.546C196.383 32.4713 196.103 32.434 195.842 32.434C194.367 32.434 193.63 33.3813 193.63 35.276C193.63 36.1813 193.807 36.8767 194.162 37.362C194.526 37.838 195.063 38.076 195.772 38.076C196.183 38.076 196.542 38.034 196.85 37.95C197.167 37.866 197.457 37.7633 197.718 37.642V38.734C197.466 38.8647 197.186 38.9627 196.878 39.028C196.579 39.1027 196.215 39.14 195.786 39.14ZM203.941 31.496H205.285L202.079 35.108L205.551 39H204.123L200.735 35.192V39H199.503V31.496H200.735V35.136L203.941 31.496ZM212.947 33.386C212.947 33.8527 212.807 34.2167 212.527 34.478C212.247 34.7393 211.887 34.9167 211.449 35.01V35.066C211.915 35.1313 212.321 35.2993 212.667 35.57C213.012 35.8313 213.185 36.242 213.185 36.802C213.185 37.4367 212.947 37.964 212.471 38.384C212.004 38.7947 211.229 39 210.147 39H206.913V31.496H210.133C210.665 31.496 211.141 31.5567 211.561 31.678C211.99 31.79 212.326 31.986 212.569 32.266C212.821 32.5367 212.947 32.91 212.947 33.386ZM211.701 33.54C211.701 33.1853 211.57 32.9287 211.309 32.77C211.057 32.602 210.641 32.518 210.063 32.518H208.145V34.576H209.839C211.08 34.576 211.701 34.2307 211.701 33.54ZM211.911 36.802C211.911 36.3727 211.747 36.0647 211.421 35.878C211.094 35.6913 210.613 35.598 209.979 35.598H208.145V38.006H210.007C210.623 38.006 211.094 37.9173 211.421 37.74C211.747 37.5533 211.911 37.2407 211.911 36.802ZM217.877 31.356C218.521 31.356 219.072 31.496 219.529 31.776C219.996 32.056 220.35 32.4527 220.593 32.966C220.845 33.47 220.971 34.0627 220.971 34.744V35.486H215.833C215.852 36.3353 216.066 36.984 216.477 37.432C216.897 37.8707 217.48 38.09 218.227 38.09C218.703 38.09 219.123 38.048 219.487 37.964C219.86 37.8707 220.243 37.74 220.635 37.572V38.65C220.252 38.818 219.874 38.9393 219.501 39.014C219.128 39.098 218.684 39.14 218.171 39.14C217.462 39.14 216.832 38.9953 216.281 38.706C215.74 38.4167 215.315 37.9873 215.007 37.418C214.708 36.8393 214.559 36.1347 214.559 35.304C214.559 34.4827 214.694 33.778 214.965 33.19C215.245 32.602 215.632 32.1493 216.127 31.832C216.631 31.5147 217.214 31.356 217.877 31.356ZM217.863 32.364C217.275 32.364 216.808 32.5553 216.463 32.938C216.127 33.3113 215.926 33.834 215.861 34.506H219.683C219.674 33.8713 219.524 33.358 219.235 32.966C218.946 32.5647 218.488 32.364 217.863 32.364Z" fill="#272727"/>
</svg>
